<?xml version="1.0" encoding="UTF-8" standalone="no"?>
<svg
   xmlns:dc="http://purl.org/dc/elements/1.1/"
   xmlns:cc="http://creativecommons.org/ns#"
   xmlns:rdf="http://www.w3.org/1999/02/22-rdf-syntax-ns#"
   xmlns:svg="http://www.w3.org/2000/svg"
   xmlns="http://www.w3.org/2000/svg"
   xmlns:sodipodi="http://sodipodi.sourceforge.net/DTD/sodipodi-0.dtd"
   xmlns:inkscape="http://www.inkscape.org/namespaces/inkscape"
   version="1.1"
   id="svg2"
   xml:space="preserve"
   width="1496"
   height="1496"
   viewBox="0 0 1496 1496"
   sodipodi:docname="43730.eps"><metadata
     id="metadata8"><rdf:RDF><cc:Work
         rdf:about=""><dc:format>image/svg+xml</dc:format><dc:type
           rdf:resource="http://purl.org/dc/dcmitype/StillImage" /></cc:Work></rdf:RDF></metadata><defs
     id="defs6" /><sodipodi:namedview
     pagecolor="#ffffff"
     bordercolor="#666666"
     borderopacity="1"
     objecttolerance="10"
     gridtolerance="10"
     guidetolerance="10"
     inkscape:pageopacity="0"
     inkscape:pageshadow="2"
     inkscape:window-width="640"
     inkscape:window-height="480"
     id="namedview4" /><g
     id="g10"
     inkscape:groupmode="layer"
     inkscape:label="ink_ext_XXXXXX"
     transform="matrix(1.3333333,0,0,-1.3333333,0,1496)"><g
       id="g12"
       transform="scale(0.1)"><path
         d="M 0,0 H 11220 V 11220 H 0 Z"
         style="fill:#e5f5f9;fill-opacity:1;fill-rule:nonzero;stroke:none"
         id="path14" /><path
         d="m 5610,1064.5 c -2510.39,0 -4545.46,2035.12 -4545.46,4545.5 0,2510.38 2035.07,4545.5 4545.46,4545.5 2510.38,0 4545.5,-2035.12 4545.5,-4545.5 0,-2510.38 -2035.12,-4545.5 -4545.5,-4545.5"
         style="fill:#eff9fb;fill-opacity:1;fill-rule:nonzero;stroke:none"
         id="path16" /><path
         d="m 7603.89,6147.29 c 0,1092.95 -886.01,1978.96 -1978.96,1978.96 -1092.98,0.01 -1982.72,-892.96 -1978.95,-1985.93 1.87,-542.72 222.25,-1033.91 577.73,-1390.32 276.73,-277.45 479.16,-620.07 581.45,-998.35 l 159.57,-590.17 h 1297.24 l 151.14,558.96 c 104.49,386.43 313.78,735.11 599.22,1015.76 365.12,359.01 591.56,858.59 591.56,1411.09"
         style="fill:#f4d242;fill-opacity:1;fill-rule:nonzero;stroke:none"
         id="path18" /><path
         d="m 5924.57,2470.29 h -632.48 c -179.2,0 -332.51,132.34 -342.72,300.24 l -53.39,648.09 1432.46,9.18 -61.14,-657.27 c -10.21,-167.9 -163.53,-300.24 -342.73,-300.24"
         style="fill:#59595b;fill-opacity:1;fill-rule:nonzero;stroke:none"
         id="path20" /><path
         d="m 6199.65,3145.18 c -400.14,-17.11 -801.72,3.38 -1201.82,-14.3 -35.53,-1.56 -32.87,-53.43 1.98,-54.59 400.44,-13.3 801.93,11.51 1202.4,-1.21 44.93,-1.44 42.94,72.04 -2.56,70.1"
         style="fill:#808183;fill-opacity:1;fill-rule:nonzero;stroke:none"
         id="path22" /><path
         d="m 6199.65,2971.37 c -400.14,-17.12 -801.72,3.39 -1201.82,-14.3 -35.53,-1.57 -32.87,-53.43 1.98,-54.59 400.44,-13.3 801.93,11.51 1202.4,-1.22 44.93,-1.43 42.94,72.05 -2.56,70.11"
         style="fill:#808183;fill-opacity:1;fill-rule:nonzero;stroke:none"
         id="path24" /><path
         d="m 5786.28,9132.55 c 0,-127.52 -67.8,-585.99 -151.45,-585.99 -83.65,0 -151.45,458.47 -151.45,585.99 0,127.53 67.8,230.91 151.45,230.91 83.65,0 151.45,-103.38 151.45,-230.91"
         style="fill:#f4d242;fill-opacity:1;fill-rule:nonzero;stroke:none"
         id="path26" /><path
         d="m 7673.42,8428.41 c -96.73,-83.11 -400.28,-433.32 -345.76,-496.77 54.51,-63.44 446.43,183.92 543.16,267.02 96.73,83.12 130.95,201.92 76.44,265.36 -54.52,63.44 -177.12,47.5 -273.84,-35.61"
         style="fill:#f4d242;fill-opacity:1;fill-rule:nonzero;stroke:none"
         id="path28" /><path
         d="m 8408.92,6382.48 c -126.51,-16.07 -589.87,-6.57 -600.4,76.41 -10.54,82.98 435.72,208.01 562.23,224.08 126.52,16.06 237.62,-38.18 248.16,-121.15 10.53,-82.98 -83.48,-163.28 -209.99,-179.34"
         style="fill:#f4d242;fill-opacity:1;fill-rule:nonzero;stroke:none"
         id="path30" /><path
         d="m 3769.44,8580.68 c 100.4,-78.62 419.55,-414.67 367.98,-480.53 -51.57,-65.85 -454.32,163.42 -554.73,242.06 -100.4,78.62 -139.99,195.75 -88.42,261.6 51.57,65.86 174.77,55.51 275.17,-23.13"
         style="fill:#f4d242;fill-opacity:1;fill-rule:nonzero;stroke:none"
         id="path32" /><path
         d="m 2811.08,6710.23 c 126.51,-16.06 589.87,-6.56 600.4,76.42 10.54,82.97 -435.72,208.01 -562.23,224.07 -126.52,16.08 -237.62,-38.16 -248.16,-121.14 -10.53,-82.98 83.48,-163.27 209.99,-179.35"
         style="fill:#f4d242;fill-opacity:1;fill-rule:nonzero;stroke:none"
         id="path34" /><path
         d="m 6259.75,5666.83 c 3.74,49.24 16.72,97.7 33.12,144.11 7.43,21.01 16.94,40.77 28.82,59.63 0.93,1.47 5.1,6.84 9.33,11.54 0.56,-3.24 1.93,-7.76 2.28,-14.34 6.33,-120.06 -3.59,-249.65 -40.98,-364.14 -4.62,-14.2 -10.2,-27.98 -16.49,-41.34 -15.75,67.19 -21.21,136.86 -16.08,204.54 z m -462.32,298.22 c 4.18,-47.41 -6.79,-105.93 -9.42,-134.68 -4.83,-52.46 -14.02,-104.5 -26.12,-155.87 -12.37,101.06 -4.1,204.69 35.54,290.55 z m 681.62,-825.36 c -63.59,46.52 -113.03,107.44 -149.04,175.93 71.77,88.61 103.39,207.76 116.53,318.52 8.04,67.7 10.32,135.61 11.4,203.72 1.05,65.67 -7.59,121.45 -63.19,162.32 -49.59,36.44 -115.79,3.54 -153.85,-31.82 -43.91,-40.8 -65.16,-107.63 -82.1,-163.26 -34.24,-112.38 -33.61,-232.83 -12.12,-347.39 7.49,-39.96 18.69,-79.16 33.09,-117.15 -28.08,-22 -59.94,-39.4 -95.07,-50.64 -108.13,-34.6 -190.2,27.7 -240.25,119.87 -8.23,15.14 -16.02,31.2 -23.38,47.91 8.51,22.77 16.63,45.55 24.19,68.08 36.8,109.53 57.11,224.25 66.31,339.24 7.62,95.3 10.33,209.19 -81.36,265.64 -29.47,18.16 -62.58,4.44 -81.11,-21.27 -133.96,-185.86 -126.45,-432.36 -53.68,-643.24 -23.42,-56.05 -50.94,-110.36 -81.46,-162.94 -33.59,-57.85 -97.71,-147.09 -175.51,-135.77 -72.42,10.55 -130.33,101.46 -166.34,157.68 -26.39,41.21 -47.1,85.24 -63.44,130.97 9.21,24.2 17.77,48.7 25.63,73.47 30.91,97.35 48.17,198.85 56.25,300.53 6.74,84.89 9.47,204.13 -83.37,244.78 -27.01,11.83 -66.9,10.59 -81.21,-21.3 -81.49,-181.39 -97.11,-380.4 -45.74,-572.61 1.75,-6.53 3.8,-12.97 5.73,-19.46 -56.3,-143.32 -141.92,-276.02 -245.86,-388.86 -46.67,-50.66 27.19,-125.38 75.78,-75.79 92.71,94.64 169.77,202.11 230.03,318.77 17.87,-33.59 37.97,-65.92 60.08,-96.53 60.62,-83.96 136.61,-162.58 245.71,-168.47 101.88,-5.5 184.65,80.16 239.85,154.63 26.5,35.74 49.66,74.67 70.27,115.23 49.9,-79.51 121.88,-142.57 219.93,-156.31 90.22,-12.64 177.62,15.39 251.54,64.89 43.34,-73.71 99.3,-140.06 164.52,-194.67 74.48,-62.34 159.55,48.02 81.24,105.3"
         style="fill:#ffffff;fill-opacity:1;fill-rule:nonzero;stroke:none"
         id="path36" /><path
         d="M 6591.6,5430.77 C 6381.16,4788.53 6159.68,4149.49 5921.71,3516.9 c -28.49,-75.74 88.18,-122.13 116.51,-46.45 237.14,633.54 457.38,1272.84 654.9,1919.85 20.37,66.74 -79.48,107.74 -101.52,40.47"
         style="fill:#ffffff;fill-opacity:1;fill-rule:nonzero;stroke:none"
         id="path38" /><path
         d="m 4677.72,5471.37 c 167.92,-654.66 324.8,-1312.54 464.32,-1973.85 16.71,-79.17 140.02,-55.56 123.2,23.49 -140.72,661.67 -298.78,1319.1 -480.17,1970.82 -18.71,67.22 -124.93,48.09 -107.35,-20.46"
         style="fill:#ffffff;fill-opacity:1;fill-rule:nonzero;stroke:none"
         id="path40" /><path
         d="m 4427.02,864.398 v 715.022 h 48 V 864.398 h -48"
         style="fill:#2e4661;fill-opacity:1;fill-rule:nonzero;stroke:none"
         id="path42" /><path
         d="m 4427.02,864.398 h 20 v 695.032 h 7.99 V 884.398 h -27.99 v -20 h 20 -20 v -20 h 67.99 v 755.022 h -87.99 V 844.398 h 20 v 20"
         style="fill:#2e4661;fill-opacity:1;fill-rule:nonzero;stroke:none"
         id="path44" /><path
         d="m 4935.02,898.398 c 85.33,0 153.83,23.004 205.5,69.004 51.65,45.998 77.5,115.398 77.5,207.998 0,92.69 -29.17,166.36 -87.5,221.03 -58.35,54.64 -130.17,81.99 -215.5,81.99 -60.67,0 -107.34,-1.34 -140,-4 V 905.402 c 40,-4.601 93.32,-7.004 160,-7.004 z m -20,621.022 c 100,0 183.5,-30.85 250.5,-92.5 67,-61.67 100.5,-145.49 100.5,-251.52 0,-106 -30.84,-185.701 -92.5,-238.998 -61.67,-53.3 -141.18,-80 -238.5,-80 -67.34,0 -136.68,3.399 -208.01,10 v 647.018 c 53.34,4 116.01,6 188.01,6"
         style="fill:#2e4661;fill-opacity:1;fill-rule:nonzero;stroke:none"
         id="path46" /><path
         d="m 4935.02,898.398 v -20 c 44.45,0 85.1,6 121.74,18.301 36.62,12.301 69.18,31 97.05,55.801 28.35,25.199 49.66,57 63.56,94.4 13.94,37.5 20.64,80.4 20.64,128.5 0.01,48.44 -7.63,92.62 -23.27,132.14 -15.63,39.51 -39.32,74.23 -70.55,103.48 -30.94,28.99 -65.81,51 -104.19,65.59 -38.38,14.61 -80.19,21.82 -124.98,21.81 -60.99,0 -108.01,-1.33 -141.63,-4.06 l -18.37,-1.49 V 887.602 l 17.68,-2 c 41.25,-4.801 95.16,-7.204 162.32,-7.204 v 20 20 c -66.2,0 -118.93,2.403 -157.68,6.903 l -2.32,-19.899 h 19.99 v 569.018 h -19.99 l 1.62,-19.93 c 31.69,2.59 78.02,3.93 138.38,3.93 40.54,-0.01 77.3,-6.47 110.75,-19.2 33.45,-12.74 63.66,-31.73 91.08,-57.39 27.09,-25.41 47.15,-54.86 60.69,-89.02 13.52,-34.15 20.47,-73.11 20.48,-117.41 0,-44.5 -6.23,-82.6 -18.13,-114.5 -11.93,-31.9 -29.37,-57.8 -52.68,-78.498 -23.79,-21.203 -51.31,-37 -83.19,-47.8 -31.86,-10.7 -68.13,-16.204 -109,-16.204 z m -20,621.022 v -19.99 c 47.95,-0.01 91.39,-7.38 130.69,-21.9 39.31,-14.53 74.57,-36.18 106.26,-65.32 31.39,-28.92 54.66,-62.62 70.35,-101.83 15.66,-39.2 23.69,-84.04 23.7,-134.98 0,-51 -7.45,-95 -21.79,-132 -14.37,-37.1 -35.48,-67.298 -63.8,-91.798 -28.87,-25 -61.74,-43.7 -99.16,-56.2 -37.4,-12.601 -79.41,-19 -126.25,-19 -66.69,0 -135.4,3.297 -206.15,9.899 l -1.86,-19.899 h 20 v 647.018 h -20 l 1.5,-19.94 c 52.67,3.95 114.88,5.95 186.51,5.95 v 19.99 20 c -72.38,0 -135.5,-2 -189.51,-6.06 l -18.5,-1.38 V 848.199 l 18.14,-1.699 c 71.91,-6.699 141.86,-10.098 209.87,-10.098 50.48,0 96.88,6.899 138.97,21.098 42.09,14.102 79.81,35.402 112.61,63.801 33.34,28.801 58.47,65 74.94,107.699 16.49,42.6 24.47,91.5 24.47,146.4 0.01,55.12 -8.71,105.2 -26.55,149.82 -17.8,44.62 -44.79,83.67 -80.4,116.42 -35.31,32.52 -75.3,57.11 -119.49,73.42 -44.19,16.32 -92.5,24.37 -144.55,24.36 v -20"
         style="fill:#2e4661;fill-opacity:1;fill-rule:nonzero;stroke:none"
         id="path48" /><path
         d="m 5466.02,864.398 v 649.022 h 302.99 v -40 h -257 v -236 h 232 v -39.02 h -232 V 906.402 h 267 v -42.004 h -312.99"
         style="fill:#2e4661;fill-opacity:1;fill-rule:nonzero;stroke:none"
         id="path50" /><path
         d="m 5466.02,864.398 h 19.99 v 629.032 h 263 v -0.01 h -257 V 1217.4 h 232 v -19 h 20 v 20 h -252 V 886.402 h 267 v -2.004 h -292.99 v -20 h 19.99 -19.99 v -20 h 332.99 v 82.004 h -267 V 1178.4 h 232 v 79.02 H 5532 v 196 h 257.01 v 80 H 5446.02 V 844.398 h 20 v 20"
         style="fill:#2e4661;fill-opacity:1;fill-rule:nonzero;stroke:none"
         id="path52" /><path
         d="m 6138.01,1443.42 c -10,-30 -19.01,-55 -27,-75 l -100,-240.02 h 256 l -99,239.02 c -15.34,37.33 -25.34,62.66 -30,76 z m -143,-354.02 -93,-225.002 h -47 l 272,653.022 H 6154 l 274.01,-653.022 h -51 l -94,225.002 h -288"
         style="fill:#2e4661;fill-opacity:1;fill-rule:nonzero;stroke:none"
         id="path54" /><path
         d="m 6138.01,1443.42 -18.98,6.33 c -9.91,-29.75 -18.81,-54.43 -26.6,-73.91 l 18.58,-7.42 -18.47,7.69 L 5981,1108.4 h 315.94 l -110.46,266.68 0.02,-0.05 c -15.27,37.15 -25.26,62.49 -29.61,74.98 l -19.32,55.3 -18.54,-55.56 18.98,-6.33 -18.89,-6.59 c 4.97,-14.19 14.98,-39.52 30.39,-77.01 l 0.02,-0.05 87.55,-211.37 H 6041 l 88.46,212.33 0.12,0.27 c 8.2,20.52 17.31,45.84 27.4,76.09 l -18.97,6.33 -18.89,-6.59 z m -143,-354.02 -18.49,7.7 -87.89,-212.702 H 5885 l 255.34,613.032 h 0.36 l 257.22,-613.032 h -7.59 l -94.01,225.002 h -314.69 l -5.11,-12.3 18.49,-7.7 v -20 h 274.67 l 94,-225.002 h 94.41 l -290.8,693.022 h -53.62 L 5825.01,844.398 h 90.37 l 98.11,237.402 -18.48,7.6 v -20 20"
         style="fill:#2e4661;fill-opacity:1;fill-rule:nonzero;stroke:none"
         id="path56" /><path
         d="m 6691,1485.43 c -36,0 -65.36,-8.67 -88.01,-26.01 -22.67,-17.34 -34,-41.67 -34,-72.99 0,-36 15,-68.34 45,-97.01 21.33,-20.67 48.83,-42.5 82.5,-65.49 33.67,-23.03 56.83,-39.53 69.51,-49.53 12.65,-10 27.99,-23.6 45.99,-41 32.66,-32.6 49.01,-70.3 49.01,-113 0,-55.298 -18.5,-97.099 -55.51,-125.498 -36.99,-28.3 -88.67,-42.5 -155,-42.5 -66.34,0 -121.84,17.297 -166.5,51.996 l 24,35 c 45.33,-30.699 93.34,-46 144,-46 50.67,0 90.16,10.704 118.5,32.004 28.34,21.399 42.5,51.399 42.5,89.998 0,33.3 -14.34,64 -42.99,92 -20,20 -46.86,41.7 -80.51,65 -33.67,23.4 -57.17,40.2 -70.5,50.53 -13.35,10.32 -28.99,24.15 -47,41.49 -34,34 -50.99,73.33 -50.99,118 0,44.66 15.82,79.66 47.5,105 31.66,25.33 75.49,38.01 131.5,38.01 56,0 106.33,-11.01 151,-33.01 l -17.01,-36.99 c -41.33,20 -88.99,30 -142.99,30"
         style="fill:#2e4661;fill-opacity:1;fill-rule:nonzero;stroke:none"
         id="path58" /><path
         d="m 6691,1485.43 v 20 c -19.6,0 -37.87,-2.35 -54.68,-7.32 -16.8,-4.96 -32.13,-12.57 -45.49,-22.8 -13.64,-10.41 -24.44,-23.53 -31.47,-38.69 -7.07,-15.17 -10.38,-32.14 -10.37,-50.19 -0.02,-20.78 4.4,-40.94 13.11,-59.67 8.7,-18.75 21.57,-36.03 38.08,-51.79 l -0.11,0.09 c 22.45,-21.74 50.79,-44.18 85.14,-67.66 33.47,-22.9 56.55,-39.3 68.4,-48.7 11.86,-9.3 26.82,-22.7 44.51,-39.7 l 13.87,14.4 -14.14,-14.1 c 14.79,-14.8 25.47,-30.3 32.54,-46.6 7.06,-16.3 10.59,-33.5 10.61,-52.3 -0.01,-25.4 -4.25,-46.9 -12.17,-64.798 -7.96,-17.903 -19.51,-32.5 -35.5,-44.801 -16.2,-12.403 -35.89,-21.899 -59.63,-28.5 -23.72,-6.5 -51.47,-9.899 -83.21,-9.899 -62.94,0.098 -113.41,16.2 -154.23,47.797 l -12.27,-15.801 16.5,-11.296 23.99,35 -16.49,11.296 -11.21,-16.496 c 48.14,-32.703 100.47,-49.504 155.21,-49.504 26.73,0 51,2.801 72.83,8.704 21.82,5.898 41.23,14.898 57.7,27.398 16.49,12.301 29.44,27.902 37.93,45.902 8.52,17.996 12.55,38.297 12.53,59.998 0.02,19.6 -4.26,38.7 -12.62,56.5 -8.35,17.9 -20.65,34.5 -36.39,49.8 l -13.97,-14.3 14.14,14.2 c -21.22,21.2 -48.93,43.4 -83.25,67.3 -33.53,23.2 -56.94,39.97 -69.63,49.83 l -0.03,0.02 c -12.51,9.67 -27.71,23.07 -45.37,40.08 l -13.87,-14.41 14.14,14.15 c -15.46,15.46 -26.62,31.66 -34.03,48.79 -7.39,17.13 -11.09,35.26 -11.11,55.06 0.01,19.99 3.52,36.94 10.1,51.51 6.61,14.56 16.3,26.97 29.9,37.88 13.58,10.85 29.93,19.19 49.68,24.9 19.73,5.71 42.83,8.72 69.33,8.72 53.39,-0.01 100.47,-10.43 142.16,-30.95 l 8.84,17.94 -18.18,8.36 -17,-37 18.17,-8.35 8.71,18.01 c -44.43,21.5 -95.26,32 -151.7,31.99 v -20 -20 c 51.55,-0.01 96.04,-9.51 134.28,-28 l 18.36,-8.89 33.65,73.23 -17.46,8.6 c -47.65,23.49 -101.24,35.08 -159.83,35.06 -29.51,0 -56.33,-3.33 -80.44,-10.29 -24.09,-6.95 -45.48,-17.62 -63.56,-32.1 -18.08,-14.43 -32.14,-32.2 -41.36,-52.63 -9.25,-20.43 -13.66,-43.32 -13.64,-67.99 -0.02,-24.86 4.77,-48.73 14.38,-70.93 9.59,-22.21 23.92,-42.68 42.47,-61.21 l 0.27,-0.26 c 18.35,-17.68 34.44,-31.92 48.64,-42.92 h -0.04 c 13.98,-10.8 37.56,-27.7 71.38,-51.1 32.97,-22.9 58.98,-43.9 77.75,-62.7 l 0.17,-0.2 c 12.92,-12.6 22.11,-25.3 28.1,-38.1 5.97,-12.9 8.85,-25.8 8.87,-39.6 -0.02,-16.9 -3.07,-30.998 -8.71,-42.9 -5.68,-12 -13.98,-22.098 -25.82,-31.098 -11.88,-8.902 -26.38,-15.902 -44.07,-20.703 -17.66,-4.699 -38.47,-7.301 -62.4,-7.301 -46.59,0.102 -90.27,13.903 -132.8,42.602 l -16.46,11.102 -45.9,-66.903 14.89,-11.597 c 48.49,-37.704 109.03,-56.301 178.77,-56.2 34.58,0 65.84,3.7 93.78,11.399 27.93,7.601 52.58,19.301 73.38,35.199 21.01,16.102 37.22,36.5 47.76,60.5 10.58,23.898 15.59,51.102 15.58,80.9 0.02,23.9 -4.62,46.9 -13.91,68.2 -9.26,21.4 -23.09,41.1 -40.95,59 l -0.36,0.3 0.09,-0.1 c -18.31,17.7 -34.03,31.7 -47.47,42.3 -13.51,10.7 -36.76,27.2 -70.61,50.34 -33,22.53 -59.66,43.75 -79.87,63.35 l -0.1,0.1 c -13.5,12.9 -23.12,26.12 -29.43,39.7 -6.29,13.61 -9.37,27.62 -9.39,42.84 0.01,13.28 2.37,24.13 6.63,33.3 4.3,9.16 10.5,16.88 19.52,23.81 9.29,7.1 19.97,12.5 32.52,16.21 12.53,3.7 26.93,5.68 43.34,5.68 v 20"
         style="fill:#2e4661;fill-opacity:1;fill-rule:nonzero;stroke:none"
         id="path60" /></g></g></svg>
